<svg width="48" height="36" viewBox="0 0 48 36" fill="none" xmlns="http://www.w3.org/2000/svg">
<rect width="48" height="36" rx="18" fill="#1D1E1F"/>
<path fill-rule="evenodd" clip-rule="evenodd" d="M33 11C33 10.4477 32.5523 10 32 10H28.6627C28.4182 10 28.2959 10 28.1808 9.97237C28.0787 9.94787 27.9812 9.90747 27.8917 9.85264C27.7908 9.7908 27.7043 9.70433 27.5314 9.53138L27.5314 9.53137L26.7029 8.70294L26.7029 8.70293C26.4435 8.44351 26.3138 8.3138 26.1624 8.22104C26.0282 8.1388 25.8819 8.07819 25.7288 8.04145C25.5562 8 25.3728 8 25.0059 8H22.9941C22.6272 8 22.4438 8 22.2712 8.04145C22.1181 8.07819 21.9718 8.1388 21.8376 8.22104C21.6862 8.3138 21.5565 8.44351 21.2971 8.70294L21.2971 8.70294L20.4686 9.53137C20.2957 9.70432 20.2092 9.7908 20.1083 9.85264C20.0188 9.90747 19.9213 9.94787 19.8192 9.97237C19.7041 10 19.5818 10 19.3373 10H16C15.4477 10 15 10.4477 15 11C15 11.5523 15.4477 12 16 12H32C32.5523 12 33 11.5523 33 11ZM31 14H17V21.7C17 23.3802 17 24.2202 17.327 24.862C17.6146 25.4265 18.0735 25.8854 18.638 26.173C19.2798 26.5 20.1198 26.5 21.8 26.5H26.2C27.8802 26.5 28.7202 26.5 29.362 26.173C29.9265 25.8854 30.3854 25.4265 30.673 24.862C31 24.2202 31 23.3802 31 21.7V14Z" fill="#71767A"/>
</svg>
