<svg width="28" height="28" viewBox="0 0 28 28" fill="none" xmlns="http://www.w3.org/2000/svg">
<path fill-rule="evenodd" clip-rule="evenodd" d="M11.0001 5C9.98628 5 9.04947 5.02705 8.18973 5.07292C8.24019 4.90053 8.30407 4.73273 8.38494 4.56198C8.67157 3.95678 9.37302 3.18422 9.94781 2.84066C10.7198 2.37926 11.3248 2.32074 12.535 2.2037C13.7708 2.08418 15.2591 2 17 2C18.7409 2 20.2292 2.08418 21.465 2.2037C22.6752 2.32074 23.2802 2.37926 24.0522 2.84066C24.627 3.18422 25.3284 3.95678 25.6151 4.56198C26 5.37477 26 6.12078 26 7.6128V14.3871C26 15.8792 26 16.6252 25.6151 17.438C25.3284 18.0432 24.627 18.8158 24.0522 19.1593C23.6913 19.375 23.3669 19.5027 23.0001 19.5894V13.6129C23.0001 13.5269 23.0003 13.4401 23.0006 13.3527C23.004 12.105 23.0078 10.7165 22.3265 9.27789C22.0168 8.62417 21.5703 8.03534 21.1629 7.58658C20.7554 7.13781 20.2123 6.63668 19.5914 6.26558C18.2318 5.45292 17.0189 5.33781 15.9275 5.23422L15.7539 5.21763C14.4226 5.08888 12.8379 5 11.0001 5ZM2.38495 10.562C2 11.3748 2 12.1208 2 13.6129V20.3871C2 21.8792 2 22.6252 2.38495 23.438C2.67158 24.0432 3.37302 24.8158 3.94782 25.1593C4.71977 25.6207 5.32487 25.6793 6.53505 25.7963C7.77082 25.9158 9.25913 26 11 26C12.7409 26 14.2292 25.9158 15.465 25.7963C16.6751 25.6793 17.2802 25.6207 18.0522 25.1593C18.627 24.8158 19.3284 24.0432 19.6151 23.438C20 22.6252 20 21.8792 20 20.3871V13.6129C20 12.1208 20 11.3748 19.6151 10.562C19.3284 9.95678 18.627 9.18423 18.0522 8.84067C17.2802 8.37926 16.6751 8.32074 15.4649 8.2037C14.2292 8.08418 12.7409 8 11 8C9.25913 8 7.77081 8.08418 6.53505 8.2037C5.32487 8.32074 4.71977 8.37927 3.94782 8.84067C3.37302 9.18423 2.67158 9.95678 2.38495 10.562Z" fill="#7F8185"/>
</svg>
