<svg width="22" height="23" viewBox="0 0 22 23" fill="none" xmlns="http://www.w3.org/2000/svg">
<path d="M0 14.4706C0 12.0181 0 10.7918 0.456723 9.68919C0.913446 8.58656 1.78054 7.71947 3.51472 5.98529L5.34314 4.15686C8.00981 1.4902 9.34315 0.15686 11 0.15686C12.6569 0.15686 13.9902 1.49019 16.6569 4.15686L18.4853 5.98528C20.2195 7.71947 21.0866 8.58656 21.5433 9.68919C22 10.7918 22 12.0181 22 14.4706V14.9416C22 18.1108 22 19.6954 20.9327 20.8461C19.8653 21.9968 18.4097 22.1064 15.4984 22.3255C14.1197 22.4293 12.5952 22.5 11 22.5C9.40479 22.5 7.88027 22.4293 6.5016 22.3255C3.59031 22.1064 2.13466 21.9968 1.06733 20.8461C0 19.6954 0 18.1108 0 14.9416V14.4706Z" fill="black"/>
</svg>
