<svg width="97" height="96" viewBox="0 0 97 96" fill="none" xmlns="http://www.w3.org/2000/svg">
<rect opacity="0.48" x="54.5" y="54" width="12" height="24" rx="6" fill="white"/>
<rect opacity="0.48" x="30.5" y="54" width="12" height="24" rx="6" fill="white"/>
<path d="M18.5 42C18.5 25.4315 31.9315 12 48.5 12V12C65.0685 12 78.5 25.4315 78.5 42V78C78.5 81.3137 75.8137 84 72.5 84V84C69.1863 84 66.5 81.3137 66.5 78V72C66.5 68.6863 63.8137 66 60.5 66V66C57.1863 66 54.5 68.6863 54.5 72V78C54.5 81.3137 51.8137 84 48.5 84V84C45.1863 84 42.5 81.3137 42.5 78V78C42.5 74.6863 39.8137 72 36.5 72V72C33.1863 72 30.5 74.6863 30.5 78V78C30.5 81.3137 27.8137 84 24.5 84V84C21.1863 84 18.5 81.3137 18.5 78V42Z" fill="white"/>
<path d="M41.5 55C41.5 55 43.8333 58 48.5 58C53.1667 58 55.5 55 55.5 55" stroke="#131414" stroke-width="4" stroke-linecap="round"/>
<path d="M75.5 41C75.5 45 75.5 47 73.5 51C72.8139 52.3722 72.1278 53.9798 71.5224 55.4998C70.1222 59.0156 70.2712 62.9281 71.6767 66.4418L73.5 71" stroke="#131414" stroke-width="2" stroke-linecap="round"/>
<path d="M80.1312 41.5885C79.6052 42.3519 78.309 42.1698 75.7164 41.8054C73.1239 41.441 71.8276 41.2589 71.5324 40.3801C71.2373 39.5012 72.1608 38.5735 74.0078 36.7181C75.3012 35.4188 75.9479 34.7691 76.6906 34.8735C77.4333 34.9779 77.8759 35.7806 78.7611 37.3861C80.0251 39.6788 80.6571 40.8251 80.1312 41.5885Z" fill="#D91646"/>
<ellipse cx="78.7783" cy="20.0195" rx="14" ry="18" transform="rotate(8 78.7783 20.0195)" fill="#F22458"/>
<path d="M88.5257 15.3304C88.2522 12.7439 86.969 11.6228 86.0589 11.1476C85.7316 10.9768 85.568 10.8913 85.4388 11.0093C85.3096 11.1273 85.3902 11.3231 85.5513 11.7146C86.5792 14.2128 86.7314 17.4696 86.665 19.862C86.6297 21.1341 86.612 21.7702 86.8232 21.8085C87.0344 21.8468 87.2362 21.2606 87.6397 20.088C88.1798 18.5183 88.666 16.657 88.5257 15.3304Z" fill="white"/>
<path d="M59.5 34C61.5687 34 64.3222 35.3695 65.2106 41.5082C65.328 42.3189 65.3866 42.7242 65.3755 42.821C65.3053 43.4292 64.7006 43.7008 64.1995 43.349C64.1197 43.293 63.8033 42.9176 63.1704 42.1667C62.1791 40.9905 60.9221 40 59.5 40C58.0779 40 56.8209 40.9905 55.8296 42.1667C55.1967 42.9176 54.8803 43.293 54.8005 43.349C54.2994 43.7008 53.6947 43.4292 53.6245 42.821C53.6134 42.7242 53.672 42.3189 53.7894 41.5082C54.6778 35.3695 57.4313 34 59.5 34Z" fill="#131414"/>
<path d="M37.5 34C39.5687 34 42.3222 35.3695 43.2106 41.5082C43.328 42.3189 43.3866 42.7242 43.3755 42.821C43.3053 43.4292 42.7006 43.7008 42.1995 43.349C42.1197 43.293 41.8033 42.9176 41.1704 42.1667C40.1791 40.9905 38.9221 40 37.5 40C36.0779 40 34.8209 40.9905 33.8296 42.1667C33.1967 42.9176 32.8803 43.293 32.8005 43.349C32.2994 43.7008 31.6947 43.4292 31.6245 42.821C31.6134 42.7242 31.672 42.3189 31.7894 41.5082C32.6778 35.3695 35.4313 34 37.5 34Z" fill="#131414"/>
</svg>
