<svg width="20" height="17" viewBox="0 0 20 17" fill="none" xmlns="http://www.w3.org/2000/svg">
<path d="M5.5 0.25C2.5 0.25 0.5 2.5 0.5 5.75C0.5 10.9049 4.70299 14.0689 7.51776 15.6098C8.49042 16.1423 8.97675 16.4086 10 16.4086C11.0233 16.4086 11.5096 16.1423 12.4822 15.6098C15.297 14.0689 19.5 10.9049 19.5 5.75C19.5 2.5 17.5 0.25 14.5 0.25C12.5065 0.25 11.2655 1.28465 10.6039 2.08468C10.2797 2.47662 10.1177 2.67259 10 2.67259C9.88233 2.67259 9.72027 2.47662 9.39613 2.08468C8.7345 1.28465 7.49349 0.25 5.5 0.25Z" fill="#71767A"/>
</svg>
