<svg width="24" height="23" viewBox="0 0 24 23" fill="none" xmlns="http://www.w3.org/2000/svg">
<path fill-rule="evenodd" clip-rule="evenodd" d="M4.95585 0.678997C3.94446 1.35799 3.45178 2.56231 2.46643 4.97094L0.893437 8.81604C0.448131 9.90457 0.225477 10.4488 0.112739 11.0222C0 11.5955 0 12.1835 0 13.3596V14.723C0 17.9914 0 19.6257 1.06457 20.7757C2.12915 21.9258 3.66241 22.0443 6.72893 22.2815C8.37576 22.4088 10.1879 22.5 12 22.5C13.8121 22.5 15.6242 22.4088 17.2711 22.2815C20.3376 22.0443 21.8709 21.9258 22.9354 20.7757C24 19.6257 24 17.9914 24 14.723V13.3596C24 12.1835 24 11.5955 23.8873 11.0222C23.7745 10.4488 23.5519 9.90459 23.1066 8.8161L23.1066 8.81604L21.5336 4.97094C20.5482 2.56231 20.0555 1.35799 19.0442 0.678997C18.0328 0 16.7316 0 14.1292 0H9.87081C7.26843 0 5.96723 0 4.95585 0.678997ZM3.93033 9.31146L5.99275 4.24583C6.29944 3.49254 7.03177 3 7.84511 3H16.1549C16.9682 3 17.7005 3.49254 18.0072 4.24583L20.0697 9.31146C20.2035 9.64029 19.9616 10 19.6066 10H17.2346C16.2393 10 15.4089 10.7559 14.9394 11.6335C14.4515 12.5456 13.5666 13.5 12 13.5C10.4334 13.5 9.54851 12.5456 9.06058 11.6335C8.59108 10.7559 7.76071 10 6.76541 10H4.39342C4.03838 10 3.79645 9.64029 3.93033 9.31146Z" fill="black"/>
</svg>
