<svg width="28" height="28" viewBox="0 0 28 28" fill="none" xmlns="http://www.w3.org/2000/svg">
<path fill-rule="evenodd" clip-rule="evenodd" d="M6.5 16.5C7.88071 16.5 9 15.3807 9 14C9 12.6193 7.88071 11.5 6.5 11.5C5.11929 11.5 4 12.6193 4 14C4 15.3807 5.11929 16.5 6.5 16.5ZM16.5 14C16.5 15.3807 15.3807 16.5 14 16.5C12.6193 16.5 11.5 15.3807 11.5 14C11.5 12.6193 12.6193 11.5 14 11.5C15.3807 11.5 16.5 12.6193 16.5 14ZM24 14C24 15.3807 22.8807 16.5 21.5 16.5C20.1193 16.5 19 15.3807 19 14C19 12.6193 20.1193 11.5 21.5 11.5C22.8807 11.5 24 12.6193 24 14Z" fill="#62D962"/>
</svg>
