<svg width="97" height="96" viewBox="0 0 97 96" fill="none" xmlns="http://www.w3.org/2000/svg">
<rect opacity="0.48" x="54.5" y="54" width="12" height="24" rx="6" fill="white"/>
<rect opacity="0.48" x="30.5" y="54" width="12" height="24" rx="6" fill="white"/>
<path d="M18.5 42C18.5 25.4315 31.9315 12 48.5 12C65.0685 12 78.5 25.4315 78.5 42V78C78.5 81.3137 75.8137 84 72.5 84C69.1863 84 66.5 81.3137 66.5 78V72C66.5 68.6863 63.8137 66 60.5 66C57.1863 66 54.5 68.6863 54.5 72V78C54.5 81.3137 51.8137 84 48.5 84C45.1863 84 42.5 81.3137 42.5 78C42.5 74.6863 39.8137 72 36.5 72C33.1863 72 30.5 74.6863 30.5 78C30.5 81.3137 27.8137 84 24.5 84C21.1863 84 18.5 81.3137 18.5 78V42Z" fill="white"/>
<path d="M48.5 60C44.2988 60 41.4765 57.5179 39.7435 55.1608C38.968 54.106 38.5803 53.5786 38.6277 53.1854C38.6684 52.8487 38.8839 52.5488 39.19 52.4028C39.5474 52.2323 40.3006 52.4727 41.807 52.9537C43.5977 53.5254 45.8748 54 48.5 54C51.1252 54 53.4024 53.5254 55.193 52.9537C56.6994 52.4727 57.4526 52.2323 57.81 52.4028C58.1161 52.5488 58.3316 52.8487 58.3723 53.1854C58.4197 53.5786 58.032 54.106 57.2565 55.1608C55.5235 57.518 52.7012 60 48.5 60Z" fill="#1D1D1F"/>
<path d="M63.3907 20.4739C65.4743 16.9484 66.5162 15.1856 67.8374 15.3713C69.1587 15.557 69.6743 17.5386 70.7054 21.5019L71.1372 23.1614C71.4366 24.3125 71.5864 24.888 71.991 25.2788C72.3956 25.6695 72.976 25.7991 74.1368 26.0582L75.8104 26.4318C79.8073 27.324 81.8057 27.7701 82.0374 29.084C82.2691 30.398 80.5437 31.5007 77.0931 33.7061L75.6482 34.6296C74.646 35.2701 74.1449 35.5903 73.8984 36.0959C73.6518 36.6015 73.7079 37.1935 73.8202 38.3776L73.982 40.0847C74.3686 44.1616 74.5619 46.2001 73.3838 46.8265C72.2057 47.4529 70.6239 46.1527 67.4601 43.5525L66.1353 42.4637C65.2165 41.7085 64.7571 41.3309 64.2 41.2526C63.643 41.1743 63.0973 41.4106 62.0059 41.8833L60.4323 42.5648C56.6744 44.1923 54.7954 45.006 53.8357 44.0792C52.8759 43.1523 53.6235 41.2461 55.1189 37.4337L55.745 35.8373C56.1793 34.73 56.3965 34.1764 56.2988 33.6224C56.2011 33.0685 55.8077 32.6225 55.0209 31.7306L53.8865 30.4446C51.1774 27.3736 49.8229 25.838 50.4078 24.6388C50.9927 23.4396 53.0367 23.5616 57.1246 23.8056L58.8363 23.9078C60.0236 23.9787 60.6172 24.0141 61.1139 23.7501C61.6105 23.486 61.9131 22.974 62.5182 21.9501L63.3907 20.4739Z" fill="#FFCF0D"/>
<path d="M26.295 21.502C27.3261 17.5387 27.8417 15.5571 29.1629 15.3714C30.4842 15.1857 31.526 16.9485 33.6096 20.474L34.4821 21.9502C35.0873 22.9741 35.3898 23.4861 35.8865 23.7502C36.3831 24.0142 36.9768 23.9788 38.164 23.9079L39.8758 23.8057C43.9637 23.5617 46.0077 23.4397 46.5926 24.6389C47.1775 25.8381 45.8229 27.3736 43.1138 30.4447L41.9795 31.7307C41.1926 32.6226 40.7992 33.0686 40.7016 33.6225C40.6039 34.1765 40.821 34.7301 41.2553 35.8374L41.8815 37.4337C43.3768 41.2462 44.1245 43.1524 43.1647 44.0793C42.2049 45.0061 40.326 44.1924 36.568 42.5649L34.9945 41.8834C33.9031 41.4107 33.3573 41.1744 32.8003 41.2527C32.2433 41.331 31.7839 41.7086 30.865 42.4638L29.5403 43.5526C26.3765 46.1528 24.7946 47.453 23.6166 46.8266C22.4385 46.2002 22.6318 44.1617 23.0183 40.0848L23.1802 38.3777C23.2925 37.1936 23.3486 36.6016 23.102 36.096C22.8554 35.5904 22.3543 35.2702 21.3522 34.6297L19.9073 33.7062C16.4566 31.5008 14.7313 30.3981 14.963 29.0841C15.1947 27.7702 17.1931 27.3241 21.1899 26.4319L22.8635 26.0583C24.0243 25.7991 24.6048 25.6696 25.0094 25.2789C25.414 24.8881 25.5637 24.3126 25.8632 23.1615L26.295 21.502Z" fill="#FFCF0D"/>
<path d="M83.5344 7.58633C83.9227 6.14421 84.1168 5.42316 84.5 5.42316C84.8832 5.42316 85.0773 6.14421 85.4656 7.58632L86.0474 9.74701C86.1204 10.0184 86.157 10.154 86.2515 10.2485C86.346 10.343 86.4816 10.3796 86.753 10.4526L88.9137 11.0344C90.3558 11.4227 91.0768 11.6168 91.0768 12C91.0768 12.3832 90.3558 12.5773 88.9137 12.9656L86.753 13.5474C86.4816 13.6204 86.346 13.657 86.2515 13.7515C86.157 13.846 86.1204 13.9816 86.0474 14.253L85.4656 16.4137C85.0773 17.8558 84.8832 18.5768 84.5 18.5768C84.1168 18.5768 83.9227 17.8558 83.5344 16.4137L82.9526 14.253C82.8796 13.9816 82.843 13.846 82.7485 13.7515C82.654 13.657 82.5184 13.6204 82.247 13.5474L80.0863 12.9656C78.6442 12.5773 77.9232 12.3832 77.9232 12C77.9232 11.6168 78.6442 11.4227 80.0863 11.0344L82.247 10.4526C82.5184 10.3796 82.654 10.343 82.7485 10.2485C82.843 10.154 82.8796 10.0184 82.9526 9.74701L83.5344 7.58633Z" fill="#FFCF0D"/>
<path d="M17.5344 3.58632C17.9227 2.14421 18.1168 1.42316 18.5 1.42316C18.8832 1.42316 19.0773 2.14421 19.4656 3.58632L19.6231 4.17127C19.6962 4.44262 19.7327 4.57829 19.8272 4.6728C19.9217 4.7673 20.0574 4.80383 20.3287 4.87689L20.9137 5.03439C22.3558 5.42267 23.0768 5.61682 23.0768 6C23.0768 6.38318 22.3558 6.57733 20.9137 6.96561L20.3287 7.12311C20.0574 7.19617 19.9217 7.2327 19.8272 7.3272C19.7327 7.42171 19.6962 7.55738 19.6231 7.82873L19.4656 8.41368C19.0773 9.85579 18.8832 10.5768 18.5 10.5768C18.1168 10.5768 17.9227 9.85579 17.5344 8.41368L17.3769 7.82873C17.3038 7.55738 17.2673 7.42171 17.1728 7.3272C17.0783 7.2327 16.9426 7.19617 16.6713 7.12311L16.0863 6.96561C14.6442 6.57733 13.9232 6.38318 13.9232 6C13.9232 5.61682 14.6442 5.42267 16.0863 5.03439L16.6713 4.87689C16.9426 4.80383 17.0783 4.7673 17.1728 4.6728C17.2673 4.57829 17.3038 4.44262 17.3769 4.17127L17.5344 3.58632Z" fill="#FFCF0D"/>
<path d="M4.01719 17.7932C4.21134 17.0721 4.30841 16.7116 4.5 16.7116C4.69159 16.7116 4.78866 17.0721 4.98281 17.7932L5.27369 18.8735C5.31022 19.0092 5.32848 19.077 5.37573 19.1243C5.42299 19.1715 5.49082 19.1898 5.6265 19.2263L6.70684 19.5172C7.42789 19.7113 7.78842 19.8084 7.78842 20C7.78842 20.1916 7.42789 20.2887 6.70684 20.4828L5.6265 20.7737C5.49082 20.8102 5.42299 20.8285 5.37573 20.8757C5.32848 20.923 5.31022 20.9908 5.27369 21.1265L4.98281 22.2068C4.78866 22.9279 4.69159 23.2884 4.5 23.2884C4.30841 23.2884 4.21134 22.9279 4.01719 22.2068L3.72631 21.1265C3.68978 20.9908 3.67152 20.923 3.62427 20.8757C3.57701 20.8285 3.50918 20.8102 3.3735 20.7737L2.29316 20.4828C1.57211 20.2887 1.21158 20.1916 1.21158 20C1.21158 19.8084 1.57211 19.7113 2.29316 19.5172L3.3735 19.2263C3.50918 19.1898 3.57701 19.1715 3.62427 19.1243C3.67152 19.077 3.68978 19.0092 3.72631 18.8735L4.01719 17.7932Z" fill="#FFCF0D"/>
</svg>
