<svg width="48" height="36" viewBox="0 0 48 36" fill="none" xmlns="http://www.w3.org/2000/svg">
<rect width="48" height="36" rx="18" fill="#1D1E1F"/>
<path fill-rule="evenodd" clip-rule="evenodd" d="M16.5 20.5C17.8807 20.5 19 19.3807 19 18C19 16.6193 17.8807 15.5 16.5 15.5C15.1193 15.5 14 16.6193 14 18C14 19.3807 15.1193 20.5 16.5 20.5ZM26.5 18C26.5 19.3807 25.3807 20.5 24 20.5C22.6193 20.5 21.5 19.3807 21.5 18C21.5 16.6193 22.6193 15.5 24 15.5C25.3807 15.5 26.5 16.6193 26.5 18ZM34 18C34 19.3807 32.8807 20.5 31.5 20.5C30.1193 20.5 29 19.3807 29 18C29 16.6193 30.1193 15.5 31.5 15.5C32.8807 15.5 34 16.6193 34 18Z" fill="#71767A"/>
</svg>
