<svg width="97" height="96" viewBox="0 0 97 96" fill="none" xmlns="http://www.w3.org/2000/svg">
<rect opacity="0.48" x="54.5" y="54" width="12" height="24" rx="6" fill="white"/>
<rect opacity="0.48" x="30.5" y="54" width="12" height="24" rx="6" fill="white"/>
<path d="M18.5 42C18.5 25.4315 31.9315 12 48.5 12C65.0685 12 78.5 25.4315 78.5 42V78C78.5 81.3137 75.8137 84 72.5 84C69.1863 84 66.5 81.3137 66.5 78V72C66.5 68.6863 63.8137 66 60.5 66C57.1863 66 54.5 68.6863 54.5 72V78C54.5 81.3137 51.8137 84 48.5 84C45.1863 84 42.5 81.3137 42.5 78C42.5 74.6863 39.8137 72 36.5 72C33.1863 72 30.5 74.6863 30.5 78C30.5 81.3137 27.8137 84 24.5 84C21.1863 84 18.5 81.3137 18.5 78V42Z" fill="white"/>
<path d="M46 52C46 52 50.5 53 50.5 54.5C50.5 56 47.5 55.5 47.5 57C47.5 58.5 50.5 58 50.5 59.5C50.5 61 46 62 46 62" stroke="#131414" stroke-width="2.5" stroke-linecap="round" stroke-linejoin="round"/>
<ellipse cx="36.5" cy="39" rx="5" ry="5" fill="#131414"/>
<ellipse cx="60.5" cy="39" rx="5" ry="5" fill="#131414"/>
<rect x="1.78516" y="10.1711" width="56" height="32" rx="8" transform="rotate(-12 1.78516 10.1711)" fill="#65CC5C"/>
<path d="M19.2406 26.1103C19.1232 26.1352 19.0171 26.1169 18.9222 26.0553C18.8273 25.9936 18.7688 25.9107 18.7466 25.8063C18.6884 25.5324 18.6506 25.3224 18.6331 25.1762C18.568 24.5493 18.6486 23.9665 18.8749 23.4277C19.1011 22.8889 19.4402 22.2716 19.8921 21.5757C20.2412 21.0381 20.4897 20.6036 20.6374 20.2723C20.7981 19.9382 20.8582 19.6119 20.8178 19.2934C20.7563 18.7476 20.4901 18.3611 20.0193 18.1341C19.5615 17.9042 19.0522 17.8489 18.4914 17.9681C17.2263 18.237 16.5978 19.0317 16.6059 20.3522C16.5783 20.6716 16.4211 20.8618 16.1342 20.9228L14.4322 21.2845C14.3018 21.3123 14.1812 21.2902 14.0705 21.2183C13.9729 21.1436 13.9088 21.0346 13.8783 20.8911C13.7519 20.1682 13.8244 19.4508 14.0956 18.7389C14.3799 18.0242 14.8666 17.3959 15.5556 16.8541C16.2419 16.2993 17.1068 15.911 18.1501 15.6893C19.2326 15.4592 20.1569 15.4467 20.923 15.6519C21.6993 15.8413 22.3008 16.1701 22.7275 16.6383C23.1672 17.1037 23.448 17.6234 23.57 18.1972C23.7086 18.8493 23.6792 19.4485 23.4818 19.9948C23.2975 20.5384 22.9849 21.1841 22.5441 21.9321C22.221 22.4643 21.9768 22.9183 21.8113 23.2943C21.6561 23.6544 21.5782 24.0254 21.5776 24.4072C21.5947 24.7443 21.6092 24.9729 21.6212 25.0931C21.592 25.2765 21.5466 25.4156 21.485 25.5105C21.4234 25.6054 21.3208 25.6681 21.1773 25.6986L19.2406 26.1103ZM19.9678 29.8201C19.8374 29.8479 19.7169 29.8258 19.6062 29.7539C19.4955 29.682 19.4262 29.5808 19.3985 29.4504L19.0284 27.7093C19.0007 27.5789 19.0228 27.4583 19.0947 27.3476C19.1666 27.2369 19.2677 27.1677 19.3982 27.14L21.3349 26.7283C21.4653 26.7006 21.5859 26.7227 21.6966 26.7946C21.8203 26.8637 21.896 26.9635 21.9238 27.0939L22.2938 28.835C22.3216 28.9654 22.2995 29.086 22.2276 29.1967C22.1557 29.3074 22.048 29.378 21.9046 29.4085L19.9678 29.8201ZM32.2775 23.3392C32.1601 23.3641 32.054 23.3458 31.9591 23.2842C31.8642 23.2226 31.8057 23.1396 31.7835 23.0353C31.7253 22.7614 31.6875 22.5513 31.67 22.4051C31.6049 21.7783 31.6855 21.1954 31.9118 20.6566C32.138 20.1178 32.4771 19.5005 32.9289 18.8047C33.2781 18.267 33.5265 17.8325 33.6742 17.5012C33.835 17.1672 33.8951 16.8409 33.8546 16.5223C33.7932 15.9765 33.527 15.5901 33.0562 15.363C32.5984 15.1332 32.0891 15.0778 31.5283 15.197C30.2632 15.4659 29.6347 16.2606 29.6428 17.5812C29.6152 17.9005 29.458 18.0907 29.1711 18.1517L27.4691 18.5135C27.3387 18.5412 27.2181 18.5191 27.1074 18.4472C27.0098 18.3726 26.9457 18.2635 26.9152 18.12C26.7888 17.3972 26.8612 16.6798 27.1325 15.9678C27.4167 15.2531 27.9034 14.6249 28.5925 14.0831C29.2788 13.5283 30.1437 13.14 31.187 12.9182C32.2695 12.6881 33.1938 12.6757 33.9598 12.8809C34.7362 13.0703 35.3377 13.3991 35.7644 13.8672C36.2041 14.3327 36.4849 14.8523 36.6069 15.4261C36.7455 16.0782 36.7161 16.6774 36.5187 17.2238C36.3343 17.7673 36.0218 18.4131 35.581 19.1611C35.2579 19.6932 35.0136 20.1472 34.8482 20.5232C34.693 20.8833 34.6151 21.2543 34.6145 21.6361C34.6316 21.9732 34.6461 22.2019 34.658 22.322C34.6289 22.5054 34.5835 22.6446 34.5218 22.7395C34.4602 22.8343 34.3577 22.897 34.2142 22.9275L32.2775 23.3392ZM33.0047 27.0491C32.8743 27.0768 32.7537 27.0547 32.643 26.9828C32.5323 26.9109 32.4631 26.8098 32.4354 26.6794L32.0653 24.9383C32.0376 24.8078 32.0597 24.6873 32.1316 24.5766C32.2035 24.4659 32.3046 24.3967 32.435 24.3689L34.3718 23.9573C34.5022 23.9296 34.6227 23.9516 34.7334 24.0235C34.8572 24.0926 34.9329 24.1924 34.9606 24.3228L35.3307 26.0639C35.3584 26.1944 35.3364 26.3149 35.2645 26.4256C35.1926 26.5363 35.0849 26.6069 34.9414 26.6374L33.0047 27.0491ZM45.3144 20.5681C45.197 20.5931 45.0909 20.5747 44.996 20.5131C44.9011 20.4515 44.8426 20.3685 44.8204 20.2642C44.7622 19.9903 44.7243 19.7802 44.7069 19.634C44.6418 19.0072 44.7224 18.4244 44.9486 17.8855C45.1749 17.3467 45.5139 16.7294 45.9658 16.0336C46.315 15.4959 46.5634 15.0614 46.7111 14.7301C46.8718 14.3961 46.932 14.0698 46.8915 13.7512C46.83 13.2054 46.5639 12.819 46.093 12.5919C45.6352 12.3621 45.1259 12.3068 44.5651 12.426C43.3001 12.6949 42.6716 13.4896 42.6796 14.8101C42.6521 15.1295 42.4949 15.3196 42.2079 15.3806L40.506 15.7424C40.3755 15.7701 40.255 15.748 40.1443 15.6761C40.0466 15.6015 39.9826 15.4924 39.9521 15.349C39.8257 14.6261 39.8981 13.9087 40.1693 13.1967C40.4536 12.482 40.9403 11.8538 41.6294 11.312C42.3157 10.7572 43.1805 10.3689 44.2239 10.1471C45.3064 9.91703 46.2306 9.90459 46.9967 10.1098C47.7731 10.2992 48.3746 10.628 48.8012 11.0962C49.2409 11.5616 49.5218 12.0812 49.6438 12.6551C49.7824 13.3072 49.753 13.9064 49.5556 14.4527C49.3712 14.9962 49.0587 15.642 48.6179 16.39C48.2948 16.9221 48.0505 17.3762 47.8851 17.7521C47.7299 18.1122 47.652 18.4832 47.6513 18.865C47.6685 19.2022 47.683 19.4308 47.6949 19.551C47.6657 19.7344 47.6203 19.8735 47.5587 19.9684C47.4971 20.0633 47.3946 20.126 47.2511 20.1565L45.3144 20.5681ZM46.0416 24.278C45.9112 24.3057 45.7906 24.2836 45.6799 24.2117C45.5692 24.1399 45.5 24.0387 45.4723 23.9083L45.1022 22.1672C45.0745 22.0368 45.0966 21.9162 45.1684 21.8055C45.2403 21.6948 45.3415 21.6256 45.4719 21.5979L47.4086 21.1862C47.5391 21.1585 47.6596 21.1806 47.7703 21.2525C47.8941 21.3216 47.9698 21.4213 47.9975 21.5518L48.3676 23.2929C48.3953 23.4233 48.3732 23.5438 48.3013 23.6545C48.2294 23.7652 48.1218 23.8358 47.9783 23.8663L46.0416 24.278Z" fill="#131414"/>
<path d="M5.13245 34.3914C4.26584 28.6457 7.74893 22.3377 13.5401 22.8136C15.3178 22.9597 17.072 23.5721 18.5 25.0001C22.3232 28.8233 20.2996 36.1546 19.1353 39.3938C18.749 40.4685 18.5 41.5909 18.5 42.7329V65.0001C15.1058 51.4231 7.39118 49.367 5.13245 34.3914Z" fill="#EBEBEB"/>
</svg>
