<svg width="28" height="28" viewBox="0 0 28 28" fill="none" xmlns="http://www.w3.org/2000/svg">
<path fill-rule="evenodd" clip-rule="evenodd" d="M22.5647 3.89776L24.1023 5.43545C24.6789 6.01202 24.9672 6.30031 25.1004 6.62191C25.278 7.05071 25.278 7.5325 25.1004 7.9613C24.9672 8.2829 24.6789 8.57119 24.1023 9.14776L23.3512 9.8989C23.0217 10.2284 22.857 10.3931 22.6732 10.4692C22.4282 10.5707 22.1529 10.5707 21.9079 10.4692C21.7241 10.3931 21.5594 10.2284 21.2299 9.8989L18.1012 6.77022C17.7717 6.44075 17.607 6.27601 17.5309 6.09224C17.4294 5.84722 17.4294 5.5719 17.5309 5.32688C17.607 5.14311 17.7717 4.97837 18.1012 4.6489L18.8523 3.89776C19.4289 3.32119 19.7172 3.0329 20.0388 2.89969C20.4676 2.72208 20.9494 2.72208 21.3782 2.89969C21.6998 3.0329 21.9881 3.32119 22.5647 3.89776ZM15.6263 7.12377L6.4341 16.316C4.36878 18.3813 3.2085 21.1825 3.2085 24.1033C3.2085 24.4834 3.51666 24.7916 3.8968 24.7916C6.81761 24.7916 9.61878 23.6313 11.6841 21.566L20.8763 12.3738L15.6263 7.12377Z" fill="#7F8185"/>
</svg>
