<svg width="48" height="36" viewBox="0 0 48 36" fill="none" xmlns="http://www.w3.org/2000/svg">
<rect width="48" height="36" rx="18" fill="#1D1E1F"/>
<path d="M26.9498 9.10564C30.2064 11.3845 32.4206 13.6654 33.7098 15.1852C34.2538 15.8265 34.5258 16.1471 34.6068 16.7195C34.628 16.8693 34.628 17.1307 34.6068 17.2805C34.5258 17.8529 34.2538 18.1735 33.7098 18.8148C32.4206 20.3346 30.2064 22.6155 26.9499 24.8943C26.04 25.531 25.5851 25.8493 25.1276 25.8578C24.6424 25.8667 24.1262 25.5979 23.8553 25.1952C23.6 24.8156 23.6 24.2247 23.6 23.0429C23.5999 22.5305 23.5999 22.2743 23.5113 22.0781C23.4118 21.8576 23.2387 21.6831 23.019 21.5817C22.8236 21.4915 22.568 21.4893 22.0568 21.4851C19.2507 21.4618 16.8371 21.6432 14.7612 25.0507C14.5947 25.3241 14.3015 25.5 13.9814 25.5C13.4946 25.5 13.0982 25.1024 13.1155 24.616C13.4316 15.772 18.4987 13.1626 22.0642 12.6192C22.6504 12.5299 22.9434 12.4853 23.1111 12.3855C23.3191 12.2619 23.4357 12.1261 23.5266 11.9019C23.5999 11.7212 23.5999 11.4665 23.5999 10.9571C23.5999 9.77533 23.5999 9.18443 23.8553 8.80479C24.1262 8.40208 24.6424 8.13326 25.1276 8.14222C25.5851 8.15066 26.04 8.46899 26.9498 9.10564Z" fill="black"/>
</svg>
