<svg width="375" height="667" viewBox="0 0 375 667" fill="none" xmlns="http://www.w3.org/2000/svg">
<g clip-path="url(#clip0_950_0)">
<rect width="375" height="667" fill="#62D962"/>
<rect opacity="0.32" x="-32.5693" y="801.392" width="240" height="48" rx="24" transform="rotate(-45 -32.5693 801.392)" fill="white"/>
<rect opacity="0.16" x="-43.8828" y="744.823" width="240" height="48" rx="24" transform="rotate(-45 -43.8828 744.823)" fill="white"/>
<rect opacity="0.48" x="-111.766" y="744.823" width="240" height="48" rx="24" transform="rotate(-45 -111.766 744.823)" fill="white"/>
<rect opacity="0.64" x="-157.02" y="722.196" width="240" height="48" rx="24" transform="rotate(-45 -157.02 722.196)" fill="white"/>
<rect opacity="0.32" x="-168.333" y="665.627" width="240" height="48" rx="24" transform="rotate(-45 -168.333 665.627)" fill="white"/>
<rect opacity="0.16" x="333.059" y="143.764" width="240" height="48" rx="24" transform="rotate(-45 333.059 143.764)" fill="white"/>
<rect opacity="0.64" x="344.372" y="64.5685" width="240" height="48" rx="24" transform="rotate(-45 344.372 64.5685)" fill="white"/>
<rect opacity="0.32" x="276.489" y="64.5682" width="240" height="48" rx="24" transform="rotate(-45 276.489 64.5682)" fill="white"/>
<rect opacity="0.48" x="265.176" y="8" width="240" height="48" rx="24" transform="rotate(-45 265.176 8)" fill="white"/>
<rect opacity="0.32" x="208.607" y="-3.31371" width="240" height="48" rx="24" transform="rotate(-45 208.607 -3.31371)" fill="white"/>
<rect x="56" y="451" width="40" height="40" rx="8" fill="white" fill-opacity="0.16"/>
<rect opacity="0.48" x="77.75" y="472.5" width="4" height="8" rx="2" fill="white"/>
<rect opacity="0.48" x="69.75" y="472.5" width="4" height="8" rx="2" fill="white"/>
<path d="M65.75 468.75C65.75 463.089 70.3391 458.5 76 458.5V458.5C81.6609 458.5 86.25 463.089 86.25 468.75V480.25C86.25 481.493 85.2426 482.5 84 482.5V482.5C82.7574 482.5 81.75 481.493 81.75 480.25V478.5C81.75 477.395 80.8546 476.5 79.75 476.5V476.5C78.6454 476.5 77.75 477.395 77.75 478.5V480.5C77.75 481.605 76.8546 482.5 75.75 482.5V482.5C74.6454 482.5 73.75 481.605 73.75 480.5V480.5C73.75 479.395 72.8546 478.5 71.75 478.5V478.5C70.6454 478.5 69.75 479.395 69.75 480.5V480.5C69.75 481.605 68.8546 482.5 67.75 482.5V482.5C66.6454 482.5 65.75 481.605 65.75 480.5V468.75Z" fill="white"/>
<path d="M73.75 472.75C73.75 472.75 74.5 473.75 76 473.75C77.5 473.75 78.25 472.75 78.25 472.75" stroke="#272729" stroke-width="1.5" stroke-linecap="round"/>
<path d="M78.625 468C78.625 468 79.125 467.5 80 467.5C80.875 467.5 81.375 468 81.375 468" stroke="#272729" stroke-width="1.5" stroke-linecap="round"/>
<circle cx="71.75" cy="467.75" r="1.75" fill="#272729"/>
<rect x="148" y="161" width="135" height="32" rx="8" fill="white" fill-opacity="0.16"/>
<path d="M159.136 184.24C158.288 184.24 157.512 184.08 156.808 183.76C156.12 183.424 155.576 182.968 155.176 182.392C154.792 181.816 154.6 181.184 154.6 180.496C154.6 179.408 155.048 178.528 155.944 177.856C156.856 177.168 158.104 176.696 159.688 176.44L162.664 175.984V175.696C162.664 175.104 162.544 174.672 162.304 174.4C162.064 174.128 161.656 173.992 161.08 173.992C160.76 173.992 160.488 174.048 160.264 174.16C160.056 174.272 159.816 174.44 159.544 174.664C159.336 174.84 159.152 174.968 158.992 175.048C158.928 175.16 158.848 175.216 158.752 175.216H155.968C155.808 175.216 155.672 175.168 155.56 175.072C155.464 174.96 155.424 174.832 155.44 174.688C155.456 174.256 155.672 173.776 156.088 173.248C156.504 172.704 157.136 172.24 157.984 171.856C158.832 171.472 159.88 171.28 161.128 171.28C163.112 171.28 164.584 171.72 165.544 172.6C166.504 173.464 166.984 174.64 166.984 176.128V183.4C166.984 183.56 166.928 183.704 166.816 183.832C166.704 183.944 166.56 184 166.384 184H163.432C163.272 184 163.128 183.944 163 183.832C162.888 183.704 162.832 183.56 162.832 183.4V182.56C162.48 183.056 161.992 183.464 161.368 183.784C160.744 184.088 160 184.24 159.136 184.24ZM160.336 181.408C161.04 181.408 161.608 181.176 162.04 180.712C162.488 180.248 162.712 179.576 162.712 178.696V178.408L160.72 178.744C159.376 179 158.704 179.48 158.704 180.184C158.704 180.552 158.856 180.848 159.16 181.072C159.48 181.296 159.872 181.408 160.336 181.408ZM170.195 184C170.035 184 169.891 183.944 169.763 183.832C169.651 183.704 169.595 183.56 169.595 183.4V172.12C169.595 171.944 169.651 171.8 169.763 171.688C169.891 171.576 170.035 171.52 170.195 171.52H173.195C173.371 171.52 173.515 171.576 173.627 171.688C173.755 171.8 173.819 171.944 173.819 172.12V176.032H177.899V172.12C177.899 171.944 177.955 171.8 178.067 171.688C178.195 171.576 178.347 171.52 178.523 171.52H181.523C181.699 171.52 181.843 171.576 181.955 171.688C182.067 171.8 182.123 171.944 182.123 172.12V183.4C182.123 183.56 182.067 183.704 181.955 183.832C181.843 183.944 181.699 184 181.523 184H178.523C178.347 184 178.195 183.944 178.067 183.832C177.955 183.72 177.899 183.576 177.899 183.4V179.296H173.819V183.4C173.819 183.576 173.755 183.72 173.627 183.832C173.515 183.944 173.371 184 173.195 184H170.195ZM190.97 184.24C188.954 184.24 187.402 183.776 186.314 182.848C185.242 181.904 184.658 180.568 184.562 178.84C184.546 178.632 184.538 178.272 184.538 177.76C184.538 177.248 184.546 176.888 184.562 176.68C184.658 174.984 185.258 173.664 186.362 172.72C187.482 171.76 189.018 171.28 190.97 171.28C192.922 171.28 194.45 171.76 195.554 172.72C196.674 173.664 197.282 174.984 197.378 176.68C197.41 177.096 197.426 177.456 197.426 177.76C197.426 178.064 197.41 178.424 197.378 178.84C197.282 180.568 196.69 181.904 195.602 182.848C194.53 183.776 192.986 184.24 190.97 184.24ZM190.97 181.216C191.626 181.216 192.114 181.016 192.434 180.616C192.754 180.2 192.938 179.568 192.986 178.72C193.002 178.56 193.01 178.24 193.01 177.76C193.01 177.28 193.002 176.96 192.986 176.8C192.938 175.968 192.754 175.344 192.434 174.928C192.114 174.512 191.626 174.304 190.97 174.304C190.314 174.304 189.826 174.512 189.506 174.928C189.186 175.344 189.002 175.968 188.954 176.8L188.93 177.76L188.954 178.72C189.002 179.568 189.186 180.2 189.506 180.616C189.826 181.016 190.314 181.216 190.97 181.216ZM200.312 184C200.152 184 200.008 183.944 199.88 183.832C199.768 183.704 199.712 183.56 199.712 183.4V172.12C199.712 171.944 199.768 171.8 199.88 171.688C200.008 171.576 200.152 171.52 200.312 171.52H203.312C203.488 171.52 203.632 171.576 203.744 171.688C203.872 171.8 203.936 171.944 203.936 172.12V176.032H208.016V172.12C208.016 171.944 208.072 171.8 208.184 171.688C208.312 171.576 208.464 171.52 208.64 171.52H211.64C211.816 171.52 211.96 171.576 212.072 171.688C212.184 171.8 212.24 171.944 212.24 172.12V183.4C212.24 183.56 212.184 183.704 212.072 183.832C211.96 183.944 211.816 184 211.64 184H208.64C208.464 184 208.312 183.944 208.184 183.832C208.072 183.72 208.016 183.576 208.016 183.4V179.296H203.936V183.4C203.936 183.576 203.872 183.72 203.744 183.832C203.632 183.944 203.488 184 203.312 184H200.312ZM227.351 171.52C227.511 171.52 227.647 171.576 227.759 171.688C227.887 171.8 227.951 171.936 227.951 172.096V183.4C227.951 183.56 227.895 183.704 227.783 183.832C227.671 183.944 227.527 184 227.351 184H224.351C224.175 184 224.023 183.944 223.895 183.832C223.783 183.72 223.727 183.576 223.727 183.4V176.896L219.047 183.616C218.871 183.872 218.647 184 218.375 184H215.687C215.527 184 215.383 183.944 215.255 183.832C215.143 183.704 215.087 183.56 215.087 183.4V172.12C215.087 171.944 215.143 171.8 215.255 171.688C215.383 171.576 215.527 171.52 215.687 171.52H218.687C218.863 171.52 219.007 171.576 219.119 171.688C219.247 171.8 219.311 171.944 219.311 172.12V178.624L223.991 171.904C224.167 171.648 224.391 171.52 224.663 171.52H227.351ZM244.598 171.52C244.726 171.52 244.838 171.568 244.934 171.664C245.03 171.76 245.078 171.872 245.078 172V183.496C245.078 183.64 245.03 183.76 244.934 183.856C244.838 183.952 244.718 184 244.574 184H241.43C241.286 184 241.166 183.952 241.07 183.856C240.974 183.76 240.926 183.64 240.926 183.496V178.192L238.958 181.624C238.862 181.8 238.758 181.936 238.646 182.032C238.55 182.112 238.422 182.152 238.262 182.152H237.278C236.99 182.152 236.75 181.976 236.558 181.624L234.59 178.216V183.496C234.59 183.64 234.542 183.76 234.446 183.856C234.35 183.952 234.238 184 234.11 184H230.966C230.822 184 230.702 183.952 230.606 183.856C230.51 183.76 230.462 183.64 230.462 183.496V172C230.462 171.872 230.51 171.76 230.606 171.664C230.702 171.568 230.814 171.52 230.942 171.52H233.87C234.158 171.52 234.39 171.664 234.566 171.952L237.758 177.616L240.974 171.952C241.15 171.664 241.382 171.52 241.67 171.52H244.598ZM248.523 184C248.363 184 248.219 183.944 248.091 183.832C247.979 183.704 247.923 183.56 247.923 183.4V172.12C247.923 171.944 247.979 171.8 248.091 171.688C248.219 171.576 248.363 171.52 248.523 171.52H251.523C251.699 171.52 251.843 171.576 251.955 171.688C252.083 171.8 252.147 171.944 252.147 172.12V176.032H256.227V172.12C256.227 171.944 256.283 171.8 256.395 171.688C256.523 171.576 256.675 171.52 256.851 171.52H259.851C260.027 171.52 260.171 171.576 260.283 171.688C260.395 171.8 260.451 171.944 260.451 172.12V183.4C260.451 183.56 260.395 183.704 260.283 183.832C260.171 183.944 260.027 184 259.851 184H256.851C256.675 184 256.523 183.944 256.395 183.832C256.283 183.72 256.227 183.576 256.227 183.4V179.296H252.147V183.4C252.147 183.576 252.083 183.72 251.955 183.832C251.843 183.944 251.699 184 251.523 184H248.523ZM269.298 184.24C267.282 184.24 265.73 183.776 264.642 182.848C263.57 181.904 262.986 180.568 262.89 178.84C262.874 178.632 262.866 178.272 262.866 177.76C262.866 177.248 262.874 176.888 262.89 176.68C262.986 174.984 263.586 173.664 264.69 172.72C265.81 171.76 267.346 171.28 269.298 171.28C271.25 171.28 272.778 171.76 273.882 172.72C275.002 173.664 275.61 174.984 275.706 176.68C275.738 177.096 275.754 177.456 275.754 177.76C275.754 178.064 275.738 178.424 275.706 178.84C275.61 180.568 275.018 181.904 273.93 182.848C272.858 183.776 271.314 184.24 269.298 184.24ZM269.298 181.216C269.954 181.216 270.442 181.016 270.762 180.616C271.082 180.2 271.266 179.568 271.314 178.72C271.33 178.56 271.338 178.24 271.338 177.76C271.338 177.28 271.33 176.96 271.314 176.8C271.266 175.968 271.082 175.344 270.762 174.928C270.442 174.512 269.954 174.304 269.298 174.304C268.642 174.304 268.154 174.512 267.834 174.928C267.514 175.344 267.33 175.968 267.282 176.8L267.258 177.76L267.282 178.72C267.33 179.568 267.514 180.2 267.834 180.616C268.154 181.016 268.642 181.216 269.298 181.216Z" fill="white"/>
<path d="M64.592 152.24C62.304 152.24 60.504 151.688 59.192 150.584C57.896 149.48 57.208 147.864 57.128 145.736C57.112 145.304 57.104 144.6 57.104 143.624C57.104 142.632 57.112 141.912 57.128 141.464C57.208 139.384 57.904 137.784 59.216 136.664C60.544 135.528 62.336 134.96 64.592 134.96C66.016 134.96 67.288 135.192 68.408 135.656C69.544 136.12 70.44 136.792 71.096 137.672C71.752 138.552 72.096 139.592 72.128 140.792C72.128 140.936 72.072 141.056 71.96 141.152C71.864 141.248 71.744 141.296 71.6 141.296H68.192C67.968 141.296 67.8 141.256 67.688 141.176C67.592 141.08 67.504 140.912 67.424 140.672C67.2 139.888 66.856 139.344 66.392 139.04C65.944 138.72 65.344 138.56 64.592 138.56C62.784 138.56 61.848 139.568 61.784 141.584C61.768 142.016 61.76 142.68 61.76 143.576C61.76 144.472 61.768 145.152 61.784 145.616C61.848 147.632 62.784 148.64 64.592 148.64C65.328 148.64 65.928 148.48 66.392 148.16C66.872 147.84 67.216 147.296 67.424 146.528C67.488 146.288 67.576 146.128 67.688 146.048C67.8 145.952 67.968 145.904 68.192 145.904H71.6C71.744 145.904 71.864 145.952 71.96 146.048C72.072 146.144 72.128 146.264 72.128 146.408C72.096 147.608 71.752 148.648 71.096 149.528C70.44 150.408 69.544 151.08 68.408 151.544C67.288 152.008 66.016 152.24 64.592 152.24ZM74.9133 152C74.7533 152 74.6093 151.944 74.4813 151.832C74.3693 151.704 74.3133 151.56 74.3133 151.4V140.12C74.3133 139.944 74.3693 139.8 74.4813 139.688C74.6093 139.576 74.7533 139.52 74.9133 139.52H86.0733C86.2493 139.52 86.3933 139.576 86.5053 139.688C86.6173 139.8 86.6733 139.944 86.6733 140.12V151.4C86.6733 151.56 86.6173 151.704 86.5053 151.832C86.3933 151.944 86.2493 152 86.0733 152H83.0733C82.9133 152 82.7693 151.944 82.6413 151.832C82.5293 151.704 82.4733 151.56 82.4733 151.4V142.784H78.5373V151.4C78.5373 151.576 78.4733 151.72 78.3453 151.832C78.2333 151.944 78.0893 152 77.9133 152H74.9133ZM90.1483 156.56C89.9723 156.56 89.8203 156.504 89.6923 156.392C89.5803 156.28 89.5243 156.136 89.5243 155.96V140.12C89.5243 139.944 89.5803 139.8 89.6923 139.688C89.8203 139.576 89.9723 139.52 90.1483 139.52H93.0043C93.1803 139.52 93.3243 139.576 93.4363 139.688C93.5483 139.8 93.6043 139.944 93.6043 140.12V140.984C94.4683 139.848 95.7083 139.28 97.3243 139.28C98.8763 139.28 100.092 139.768 100.972 140.744C101.868 141.704 102.348 143.08 102.412 144.872C102.428 145.08 102.436 145.376 102.436 145.76C102.436 146.144 102.428 146.448 102.412 146.672C102.348 148.4 101.868 149.76 100.972 150.752C100.076 151.744 98.8603 152.24 97.3243 152.24C95.7723 152.24 94.6123 151.712 93.8443 150.656V155.96C93.8443 156.136 93.7883 156.28 93.6763 156.392C93.5643 156.504 93.4203 156.56 93.2443 156.56H90.1483ZM95.9323 148.904C96.6523 148.904 97.1643 148.696 97.4683 148.28C97.7883 147.848 97.9723 147.256 98.0203 146.504C98.0363 146.344 98.0443 146.096 98.0443 145.76C98.0443 145.424 98.0363 145.176 98.0203 145.016C97.9723 144.264 97.7883 143.68 97.4683 143.264C97.1643 142.832 96.6523 142.616 95.9323 142.616C95.2443 142.616 94.7323 142.84 94.3963 143.288C94.0603 143.72 93.8763 144.272 93.8443 144.944C93.8283 145.152 93.8203 145.456 93.8203 145.856C93.8203 146.24 93.8283 146.536 93.8443 146.744C93.8763 147.368 94.0603 147.888 94.3963 148.304C94.7483 148.704 95.2603 148.904 95.9323 148.904ZM110.735 152.24C108.719 152.24 107.167 151.776 106.079 150.848C105.007 149.904 104.423 148.568 104.327 146.84C104.311 146.632 104.303 146.272 104.303 145.76C104.303 145.248 104.311 144.888 104.327 144.68C104.423 142.984 105.023 141.664 106.127 140.72C107.247 139.76 108.783 139.28 110.735 139.28C112.687 139.28 114.215 139.76 115.319 140.72C116.439 141.664 117.047 142.984 117.143 144.68C117.175 145.096 117.191 145.456 117.191 145.76C117.191 146.064 117.175 146.424 117.143 146.84C117.047 148.568 116.455 149.904 115.367 150.848C114.295 151.776 112.751 152.24 110.735 152.24ZM110.735 149.216C111.391 149.216 111.879 149.016 112.199 148.616C112.519 148.2 112.703 147.568 112.751 146.72C112.767 146.56 112.775 146.24 112.775 145.76C112.775 145.28 112.767 144.96 112.751 144.8C112.703 143.968 112.519 143.344 112.199 142.928C111.879 142.512 111.391 142.304 110.735 142.304C110.079 142.304 109.591 142.512 109.271 142.928C108.951 143.344 108.767 143.968 108.719 144.8L108.695 145.76L108.719 146.72C108.767 147.568 108.951 148.2 109.271 148.616C109.591 149.016 110.079 149.216 110.735 149.216ZM125.285 152.24C123.461 152.24 121.981 151.76 120.845 150.8C119.725 149.824 119.125 148.472 119.045 146.744L119.021 145.784L119.045 144.8C119.109 143.072 119.709 141.72 120.845 140.744C121.981 139.768 123.461 139.28 125.285 139.28C126.677 139.28 127.845 139.528 128.789 140.024C129.733 140.52 130.437 141.112 130.901 141.8C131.365 142.472 131.613 143.088 131.645 143.648C131.661 143.824 131.605 143.976 131.477 144.104C131.349 144.216 131.197 144.272 131.021 144.272H127.805C127.629 144.272 127.493 144.232 127.397 144.152C127.301 144.072 127.213 143.944 127.133 143.768C126.957 143.32 126.725 142.992 126.437 142.784C126.165 142.576 125.813 142.472 125.381 142.472C124.149 142.472 123.509 143.288 123.461 144.92L123.437 145.832L123.461 146.624C123.477 147.456 123.645 148.072 123.965 148.472C124.285 148.856 124.757 149.048 125.381 149.048C125.845 149.048 126.205 148.952 126.461 148.76C126.733 148.552 126.957 148.216 127.133 147.752C127.213 147.576 127.301 147.448 127.397 147.368C127.493 147.288 127.629 147.248 127.805 147.248H131.021C131.181 147.248 131.325 147.304 131.453 147.416C131.581 147.528 131.645 147.664 131.645 147.824C131.645 148.32 131.421 148.92 130.973 149.624C130.541 150.312 129.845 150.92 128.885 151.448C127.925 151.976 126.725 152.24 125.285 152.24ZM145.968 139.52C146.128 139.52 146.264 139.576 146.376 139.688C146.504 139.8 146.568 139.936 146.568 140.096V151.4C146.568 151.56 146.512 151.704 146.4 151.832C146.288 151.944 146.144 152 145.968 152H142.968C142.792 152 142.64 151.944 142.512 151.832C142.4 151.72 142.344 151.576 142.344 151.4V144.896L137.664 151.616C137.488 151.872 137.264 152 136.992 152H134.304C134.144 152 134 151.944 133.872 151.832C133.76 151.704 133.704 151.56 133.704 151.4V140.12C133.704 139.944 133.76 139.8 133.872 139.688C134 139.576 134.144 139.52 134.304 139.52H137.304C137.48 139.52 137.624 139.576 137.736 139.688C137.864 139.8 137.928 139.944 137.928 140.12V146.624L142.608 139.904C142.784 139.648 143.008 139.52 143.28 139.52H145.968ZM168.254 139.52C168.382 139.52 168.494 139.568 168.59 139.664C168.686 139.76 168.734 139.872 168.734 140V151.496C168.734 151.64 168.686 151.76 168.59 151.856C168.494 151.952 168.374 152 168.23 152H165.086C164.942 152 164.822 151.952 164.726 151.856C164.63 151.76 164.582 151.64 164.582 151.496V146.192L162.614 149.624C162.518 149.8 162.414 149.936 162.302 150.032C162.206 150.112 162.078 150.152 161.918 150.152H160.934C160.646 150.152 160.406 149.976 160.214 149.624L158.246 146.216V151.496C158.246 151.64 158.198 151.76 158.102 151.856C158.006 151.952 157.894 152 157.766 152H154.622C154.478 152 154.358 151.952 154.262 151.856C154.166 151.76 154.118 151.64 154.118 151.496V140C154.118 139.872 154.166 139.76 154.262 139.664C154.358 139.568 154.47 139.52 154.598 139.52H157.526C157.814 139.52 158.046 139.664 158.222 139.952L161.414 145.616L164.63 139.952C164.806 139.664 165.038 139.52 165.326 139.52H168.254ZM177.435 152.24C175.483 152.24 173.947 151.72 172.827 150.68C171.707 149.624 171.131 148.096 171.099 146.096V145.352C171.163 143.448 171.755 141.96 172.875 140.888C173.995 139.816 175.507 139.28 177.411 139.28C178.787 139.28 179.947 139.56 180.891 140.12C181.851 140.664 182.563 141.424 183.027 142.4C183.507 143.36 183.747 144.456 183.747 145.688V146.288C183.747 146.464 183.683 146.616 183.555 146.744C183.443 146.856 183.299 146.912 183.123 146.912H175.515V147.056C175.531 147.776 175.699 148.36 176.019 148.808C176.339 149.24 176.795 149.456 177.387 149.456C177.771 149.456 178.075 149.384 178.299 149.24C178.539 149.08 178.763 148.88 178.971 148.64C179.115 148.48 179.227 148.384 179.307 148.352C179.403 148.304 179.547 148.28 179.739 148.28H182.883C183.027 148.28 183.147 148.328 183.243 148.424C183.355 148.504 183.411 148.608 183.411 148.736C183.411 149.152 183.171 149.64 182.691 150.2C182.227 150.76 181.539 151.24 180.627 151.64C179.731 152.04 178.667 152.24 177.435 152.24ZM179.331 144.464V144.416C179.331 143.648 179.163 143.056 178.827 142.64C178.491 142.208 178.019 141.992 177.411 141.992C176.803 141.992 176.331 142.208 175.995 142.64C175.675 143.056 175.515 143.648 175.515 144.416V144.464H179.331ZM186.499 152C186.339 152 186.195 151.944 186.067 151.832C185.955 151.704 185.899 151.56 185.899 151.4V140.12C185.899 139.944 185.955 139.8 186.067 139.688C186.195 139.576 186.339 139.52 186.499 139.52H189.499C189.675 139.52 189.819 139.576 189.931 139.688C190.059 139.8 190.123 139.944 190.123 140.12V144.032H194.203V140.12C194.203 139.944 194.259 139.8 194.371 139.688C194.499 139.576 194.651 139.52 194.827 139.52H197.827C198.003 139.52 198.147 139.576 198.259 139.688C198.371 139.8 198.427 139.944 198.427 140.12V151.4C198.427 151.56 198.371 151.704 198.259 151.832C198.147 151.944 198.003 152 197.827 152H194.827C194.651 152 194.499 151.944 194.371 151.832C194.259 151.72 194.203 151.576 194.203 151.4V147.296H190.123V151.4C190.123 151.576 190.059 151.72 189.931 151.832C189.819 151.944 189.675 152 189.499 152H186.499ZM212.458 139.52C212.634 139.52 212.778 139.576 212.89 139.688C213.002 139.8 213.058 139.944 213.058 140.12V151.4C213.058 151.56 213.002 151.704 212.89 151.832C212.778 151.944 212.634 152 212.458 152H209.362C209.186 152 209.034 151.944 208.906 151.832C208.794 151.72 208.738 151.576 208.738 151.4V148.04H207.106L205.162 151.64C205.05 151.88 204.866 152 204.61 152H201.586C201.426 152 201.298 151.952 201.202 151.856C201.106 151.76 201.058 151.648 201.058 151.52C201.058 151.392 201.098 151.28 201.178 151.184L203.554 147.248C202.882 146.896 202.37 146.424 202.018 145.832C201.666 145.24 201.49 144.544 201.49 143.744C201.49 142.384 201.938 141.344 202.834 140.624C203.746 139.888 205.01 139.52 206.626 139.52H212.458ZM208.834 142.376H206.866C206.306 142.376 205.89 142.488 205.618 142.712C205.362 142.92 205.234 143.264 205.234 143.744C205.234 144.192 205.362 144.544 205.618 144.8C205.89 145.056 206.282 145.184 206.794 145.184H208.834V142.376ZM226.962 152.24C224.946 152.24 223.394 151.776 222.306 150.848C221.234 149.904 220.65 148.568 220.554 146.84C220.538 146.632 220.53 146.272 220.53 145.76C220.53 145.248 220.538 144.888 220.554 144.68C220.65 142.984 221.25 141.664 222.354 140.72C223.474 139.76 225.01 139.28 226.962 139.28C228.914 139.28 230.442 139.76 231.546 140.72C232.666 141.664 233.274 142.984 233.37 144.68C233.402 145.096 233.418 145.456 233.418 145.76C233.418 146.064 233.402 146.424 233.37 146.84C233.274 148.568 232.682 149.904 231.594 150.848C230.522 151.776 228.978 152.24 226.962 152.24ZM226.962 149.216C227.618 149.216 228.106 149.016 228.426 148.616C228.746 148.2 228.93 147.568 228.978 146.72C228.994 146.56 229.002 146.24 229.002 145.76C229.002 145.28 228.994 144.96 228.978 144.8C228.93 143.968 228.746 143.344 228.426 142.928C228.106 142.512 227.618 142.304 226.962 142.304C226.306 142.304 225.818 142.512 225.498 142.928C225.178 143.344 224.994 143.968 224.946 144.8L224.922 145.76L224.946 146.72C224.994 147.568 225.178 148.2 225.498 148.616C225.818 149.016 226.306 149.216 226.962 149.216ZM248.687 152C248.511 152 248.359 151.944 248.231 151.832C248.119 151.72 248.063 151.576 248.063 151.4V147.824C247.343 148.4 246.271 148.688 244.847 148.688C243.295 148.688 242.119 148.296 241.319 147.512C240.535 146.712 240.143 145.464 240.143 143.768V140.12C240.143 139.944 240.199 139.8 240.311 139.688C240.439 139.576 240.583 139.52 240.743 139.52H243.863C244.039 139.52 244.183 139.576 244.295 139.688C244.407 139.8 244.463 139.944 244.463 140.12V143.552C244.463 144.096 244.591 144.48 244.847 144.704C245.103 144.928 245.535 145.04 246.143 145.04C246.735 145.04 247.199 144.952 247.535 144.776C247.887 144.584 248.063 144.312 248.063 143.96V140.12C248.063 139.944 248.119 139.8 248.231 139.688C248.359 139.576 248.511 139.52 248.687 139.52H251.927C252.103 139.52 252.247 139.576 252.359 139.688C252.487 139.8 252.551 139.944 252.551 140.12V151.4C252.551 151.576 252.487 151.72 252.359 151.832C252.247 151.944 252.103 152 251.927 152H248.687ZM261.247 152.24C259.295 152.24 257.759 151.72 256.639 150.68C255.519 149.624 254.943 148.096 254.911 146.096V145.352C254.975 143.448 255.567 141.96 256.687 140.888C257.807 139.816 259.319 139.28 261.223 139.28C262.599 139.28 263.759 139.56 264.703 140.12C265.663 140.664 266.375 141.424 266.839 142.4C267.319 143.36 267.559 144.456 267.559 145.688V146.288C267.559 146.464 267.495 146.616 267.367 146.744C267.255 146.856 267.111 146.912 266.935 146.912H259.327V147.056C259.343 147.776 259.511 148.36 259.831 148.808C260.151 149.24 260.607 149.456 261.199 149.456C261.583 149.456 261.887 149.384 262.111 149.24C262.351 149.08 262.575 148.88 262.783 148.64C262.927 148.48 263.039 148.384 263.119 148.352C263.215 148.304 263.359 148.28 263.551 148.28H266.695C266.839 148.28 266.959 148.328 267.055 148.424C267.167 148.504 267.223 148.608 267.223 148.736C267.223 149.152 266.983 149.64 266.503 150.2C266.039 150.76 265.351 151.24 264.439 151.64C263.543 152.04 262.479 152.24 261.247 152.24ZM263.143 144.464V144.416C263.143 143.648 262.975 143.056 262.639 142.64C262.303 142.208 261.831 141.992 261.223 141.992C260.615 141.992 260.143 142.208 259.807 142.64C259.487 143.056 259.327 143.648 259.327 144.416V144.464H263.143ZM257.551 137.456C257.391 137.456 257.263 137.408 257.167 137.312C257.071 137.216 257.023 137.088 257.023 136.928V134.624C257.023 134.464 257.071 134.336 257.167 134.24C257.263 134.128 257.391 134.072 257.551 134.072H259.855C260.015 134.072 260.143 134.128 260.239 134.24C260.351 134.336 260.407 134.464 260.407 134.624V136.928C260.407 137.088 260.351 137.216 260.239 137.312C260.143 137.408 260.015 137.456 259.855 137.456H257.551ZM262.615 137.456C262.455 137.456 262.319 137.408 262.207 137.312C262.111 137.216 262.063 137.088 262.063 136.928V134.624C262.063 134.464 262.111 134.336 262.207 134.24C262.319 134.128 262.455 134.072 262.615 134.072H264.895C265.055 134.072 265.183 134.128 265.279 134.24C265.391 134.336 265.447 134.464 265.447 134.624V136.928C265.447 137.088 265.391 137.216 265.279 137.312C265.183 137.408 265.055 137.456 264.895 137.456H262.615ZM283.848 139.52C283.976 139.52 284.088 139.568 284.184 139.664C284.28 139.76 284.328 139.872 284.328 140V151.496C284.328 151.64 284.28 151.76 284.184 151.856C284.088 151.952 283.968 152 283.824 152H280.68C280.536 152 280.416 151.952 280.32 151.856C280.224 151.76 280.176 151.64 280.176 151.496V146.192L278.208 149.624C278.112 149.8 278.008 149.936 277.896 150.032C277.8 150.112 277.672 150.152 277.512 150.152H276.528C276.24 150.152 276 149.976 275.808 149.624L273.84 146.216V151.496C273.84 151.64 273.792 151.76 273.696 151.856C273.6 151.952 273.488 152 273.36 152H270.216C270.072 152 269.952 151.952 269.856 151.856C269.76 151.76 269.712 151.64 269.712 151.496V140C269.712 139.872 269.76 139.76 269.856 139.664C269.952 139.568 270.064 139.52 270.192 139.52H273.12C273.408 139.52 273.64 139.664 273.816 139.952L277.008 145.616L280.224 139.952C280.4 139.664 280.632 139.52 280.92 139.52H283.848ZM69.392 171.52C69.536 171.52 69.656 171.576 69.752 171.688C69.864 171.784 69.92 171.896 69.92 172.024C69.92 172.136 69.896 172.24 69.848 172.336L65.288 183.352C64.776 184.568 64.288 185.536 63.824 186.256C63.36 186.992 62.808 187.56 62.168 187.96C61.544 188.376 60.768 188.584 59.84 188.584H58.64C58.464 188.584 58.312 188.52 58.184 188.392C58.072 188.28 58.016 188.136 58.016 187.96V185.92C58.016 185.744 58.072 185.6 58.184 185.488C58.312 185.376 58.464 185.32 58.64 185.32H59.48C59.896 185.32 60.216 185.2 60.44 184.96C60.664 184.736 60.912 184.296 61.184 183.64L61.28 183.424L56.504 172.336C56.456 172.208 56.432 172.12 56.432 172.072C56.464 171.912 56.528 171.784 56.624 171.688C56.736 171.576 56.864 171.52 57.008 171.52H59.864C60.2 171.52 60.432 171.688 60.56 172.024L63.176 178.768L65.936 172.024C66.064 171.688 66.312 171.52 66.68 171.52H69.392ZM72.2883 184C72.1283 184 71.9843 183.944 71.8563 183.832C71.7443 183.704 71.6883 183.56 71.6883 183.4V172.12C71.6883 171.944 71.7443 171.8 71.8563 171.688C71.9843 171.576 72.1283 171.52 72.2883 171.52H80.4003C80.5763 171.52 80.7203 171.576 80.8323 171.688C80.9443 171.8 81.0003 171.944 81.0003 172.12V174.184C81.0003 174.344 80.9443 174.488 80.8323 174.616C80.7203 174.728 80.5763 174.784 80.4003 174.784H75.9123V183.4C75.9123 183.576 75.8483 183.72 75.7203 183.832C75.6083 183.944 75.4643 184 75.2883 184H72.2883ZM88.6102 184.24C86.5942 184.24 85.0422 183.776 83.9542 182.848C82.8822 181.904 82.2982 180.568 82.2022 178.84C82.1862 178.632 82.1782 178.272 82.1782 177.76C82.1782 177.248 82.1862 176.888 82.2022 176.68C82.2982 174.984 82.8982 173.664 84.0022 172.72C85.1222 171.76 86.6582 171.28 88.6102 171.28C90.5622 171.28 92.0902 171.76 93.1942 172.72C94.3142 173.664 94.9222 174.984 95.0182 176.68C95.0502 177.096 95.0662 177.456 95.0662 177.76C95.0662 178.064 95.0502 178.424 95.0182 178.84C94.9222 180.568 94.3302 181.904 93.2422 182.848C92.1702 183.776 90.6262 184.24 88.6102 184.24ZM88.6102 181.216C89.2662 181.216 89.7542 181.016 90.0742 180.616C90.3942 180.2 90.5782 179.568 90.6262 178.72C90.6422 178.56 90.6502 178.24 90.6502 177.76C90.6502 177.28 90.6422 176.96 90.6262 176.8C90.5782 175.968 90.3942 175.344 90.0742 174.928C89.7542 174.512 89.2662 174.304 88.6102 174.304C87.9542 174.304 87.4662 174.512 87.1462 174.928C86.8262 175.344 86.6422 175.968 86.5942 176.8L86.5702 177.76L86.5942 178.72C86.6422 179.568 86.8262 180.2 87.1462 180.616C87.4662 181.016 87.9542 181.216 88.6102 181.216ZM97.1604 186.64C96.9844 186.64 96.8324 186.584 96.7044 186.472C96.5924 186.36 96.5364 186.216 96.5364 186.04V181.336C96.5364 181.16 96.5924 181.016 96.7044 180.904C96.8324 180.792 96.9844 180.736 97.1604 180.736H97.4004C97.9764 180.736 98.3764 180.32 98.6004 179.488C98.8244 178.64 98.9364 177.328 98.9364 175.552V172.12C98.9364 171.944 98.9924 171.8 99.1044 171.688C99.2324 171.576 99.3844 171.52 99.5604 171.52H109.16C109.336 171.52 109.48 171.576 109.592 171.688C109.704 171.8 109.76 171.944 109.76 172.12V180.712H110.768C110.944 180.712 111.088 180.776 111.2 180.904C111.328 181.016 111.392 181.16 111.392 181.336V186.04C111.392 186.216 111.328 186.36 111.2 186.472C111.088 186.584 110.944 186.64 110.768 186.64H107.768C107.608 186.64 107.464 186.584 107.336 186.472C107.224 186.36 107.168 186.216 107.168 186.04V184H100.76V186.04C100.76 186.216 100.704 186.36 100.592 186.472C100.48 186.584 100.336 186.64 100.16 186.64H97.1604ZM105.536 180.712V174.784H102.944V176.008C102.944 178.216 102.672 179.792 102.128 180.736L105.536 180.712ZM113.82 184C113.66 184 113.516 183.944 113.388 183.832C113.276 183.704 113.22 183.56 113.22 183.4V172.12C113.22 171.944 113.276 171.8 113.388 171.688C113.516 171.576 113.66 171.52 113.82 171.52H116.82C116.996 171.52 117.14 171.576 117.252 171.688C117.38 171.8 117.444 171.944 117.444 172.12V176.032H121.524V172.12C121.524 171.944 121.58 171.8 121.692 171.688C121.82 171.576 121.972 171.52 122.148 171.52H125.148C125.324 171.52 125.468 171.576 125.58 171.688C125.692 171.8 125.748 171.944 125.748 172.12V183.4C125.748 183.56 125.692 183.704 125.58 183.832C125.468 183.944 125.324 184 125.148 184H122.148C121.972 184 121.82 183.944 121.692 183.832C121.58 183.72 121.524 183.576 121.524 183.4V179.296H117.444V183.4C117.444 183.576 117.38 183.72 117.252 183.832C117.14 183.944 116.996 184 116.82 184H113.82ZM134.595 184.24C132.579 184.24 131.027 183.776 129.939 182.848C128.867 181.904 128.283 180.568 128.187 178.84C128.171 178.632 128.163 178.272 128.163 177.76C128.163 177.248 128.171 176.888 128.187 176.68C128.283 174.984 128.883 173.664 129.987 172.72C131.107 171.76 132.643 171.28 134.595 171.28C136.547 171.28 138.075 171.76 139.179 172.72C140.299 173.664 140.907 174.984 141.003 176.68C141.035 177.096 141.051 177.456 141.051 177.76C141.051 178.064 141.035 178.424 141.003 178.84C140.907 180.568 140.315 181.904 139.227 182.848C138.155 183.776 136.611 184.24 134.595 184.24ZM134.595 181.216C135.251 181.216 135.739 181.016 136.059 180.616C136.379 180.2 136.563 179.568 136.611 178.72C136.627 178.56 136.635 178.24 136.635 177.76C136.635 177.28 136.627 176.96 136.611 176.8C136.563 175.968 136.379 175.344 136.059 174.928C135.739 174.512 135.251 174.304 134.595 174.304C133.939 174.304 133.451 174.512 133.131 174.928C132.811 175.344 132.627 175.968 132.579 176.8L132.555 177.76L132.579 178.72C132.627 179.568 132.811 180.2 133.131 180.616C133.451 181.016 133.939 181.216 134.595 181.216Z" fill="white"/>
</g>
<defs>
<clipPath id="clip0_950_0">
<rect width="375" height="667" fill="white"/>
</clipPath>
</defs>
</svg>
